<svg id="export-svg" width="100%" xmlns="http://www.w3.org/2000/svg" class="classDiagram" style="max-width: 1180px; background: rgb(255, 255, 255);" viewBox="4 4 990.2957763671875 673" role="graphics-document document" aria-roledescription="class"><style xmlns="http://www.w3.org/1999/xhtml">p {margin: 0;}</style><style>#export-svg{font-family:arial,sans-serif;font-size:14px;fill:#333;}@keyframes edge-animation-frame{from{stroke-dashoffset:0;}}@keyframes dash{to{stroke-dashoffset:0;}}#export-svg .edge-animation-slow{stroke-dasharray:9,5!important;stroke-dashoffset:900;animation:dash 50s linear infinite;stroke-linecap:round;}#export-svg .edge-animation-fast{stroke-dasharray:9,5!important;stroke-dashoffset:900;animation:dash 20s linear infinite;stroke-linecap:round;}#export-svg .error-icon{fill:#ffffff;}#export-svg .error-text{fill:#000000;stroke:#000000;}#export-svg .edge-thickness-normal{stroke-width:2px;}#export-svg .edge-thickness-thick{stroke-width:3.5px;}#export-svg .edge-pattern-solid{stroke-dasharray:0;}#export-svg .edge-thickness-invisible{stroke-width:0;fill:none;}#export-svg .edge-pattern-dashed{stroke-dasharray:3;}#export-svg .edge-pattern-dotted{stroke-dasharray:2;}#export-svg .marker{fill:#000000;stroke:#000000;}#export-svg .marker.cross{stroke:#000000;}#export-svg svg{font-family:arial,sans-serif;font-size:14px;}#export-svg p{margin:0;}#export-svg g.classGroup text{fill:#000000;stroke:none;font-family:arial,sans-serif;font-size:10px;}#export-svg g.classGroup text .title{font-weight:bolder;}#export-svg .cluster-label text{fill:#000000;}#export-svg .cluster-label span{color:#000000;}#export-svg .cluster-label span p{background-color:transparent;}#export-svg .cluster rect{fill:#ffffff;stroke:hsl(0, 0%, 90%);stroke-width:1px;}#export-svg .cluster text{fill:#000000;}#export-svg .cluster span{color:#000000;}#export-svg .nodeLabel,#export-svg .edgeLabel{color:#333;}#export-svg .noteLabel .nodeLabel,#export-svg .noteLabel .edgeLabel{color:#333;}#export-svg .edgeLabel .label rect{fill:#ffffff;}#export-svg .label text{fill:#333;}#export-svg .labelBkg{background:#ffffff;}#export-svg .edgeLabel .label span{background:#ffffff;}#export-svg .classTitle{font-weight:bolder;}#export-svg .node rect,#export-svg .node circle,#export-svg .node ellipse,#export-svg .node polygon,#export-svg .node path{fill:#ffffff;stroke:#000000;stroke-width:2;}#export-svg .divider{stroke:#000000;stroke-width:1;}#export-svg g.clickable{cursor:pointer;}#export-svg g.classGroup rect{fill:#ffffff;stroke:#000000;}#export-svg g.classGroup line{stroke:#000000;stroke-width:1;}#export-svg .classLabel .box{stroke:none;stroke-width:0;fill:#ffffff;opacity:0.5;}#export-svg .classLabel .label{fill:#000000;font-size:10px;}#export-svg .relation{stroke:#000000;stroke-width:2;fill:none;}#export-svg .dashed-line{stroke-dasharray:3;}#export-svg .dotted-line{stroke-dasharray:1 2;}#export-svg #compositionStart,#export-svg .composition{fill:#000000!important;stroke:#000000!important;stroke-width:1;}#export-svg #compositionEnd,#export-svg .composition{fill:#000000!important;stroke:#000000!important;stroke-width:1;}#export-svg #dependencyStart,#export-svg .dependency{fill:#000000!important;stroke:#000000!important;stroke-width:1;}#export-svg #dependencyStart,#export-svg .dependency{fill:#000000!important;stroke:#000000!important;stroke-width:1;}#export-svg #extensionStart,#export-svg .extension{fill:transparent!important;stroke:#000000!important;stroke-width:1;}#export-svg #extensionEnd,#export-svg .extension{fill:transparent!important;stroke:#000000!important;stroke-width:1;}#export-svg #aggregationStart,#export-svg .aggregation{fill:transparent!important;stroke:#000000!important;stroke-width:1;}#export-svg #aggregationEnd,#export-svg .aggregation{fill:transparent!important;stroke:#000000!important;stroke-width:1;}#export-svg #lollipopStart,#export-svg .lollipop{fill:#ffffff!important;stroke:#000000!important;stroke-width:1;}#export-svg #lollipopEnd,#export-svg .lollipop{fill:#ffffff!important;stroke:#000000!important;stroke-width:1;}#export-svg .edgeTerminals{font-size:11px;line-height:initial;}#export-svg .classTitleText{text-anchor:middle;font-size:18px;fill:#333;}#export-svg .edgeLabel{background-color:hsl(-120, 0%, 80%);text-align:center;}#export-svg .edgeLabel p{background-color:hsl(-120, 0%, 80%);}#export-svg .edgeLabel rect{opacity:0.5;background-color:hsl(-120, 0%, 80%);fill:hsl(-120, 0%, 80%);}#export-svg .cluster rect{fill:#ffffff;stroke:hsl(0, 0%, 90%);stroke-width:2px;}#export-svg .label-icon{display:inline-block;height:1em;overflow:visible;vertical-align:-0.125em;}#export-svg .node .label-icon path{fill:currentColor;stroke:revert;stroke-width:revert;}#export-svg .node .neo-node{stroke:#000000;}#export-svg [data-look="neo"].node rect,#export-svg [data-look="neo"].cluster rect,#export-svg [data-look="neo"].node polygon{stroke:url(#export-svg-gradient);filter:drop-shadow( 0px 1px 2px rgba(0, 0, 0, 0.25));}#export-svg [data-look="neo"].node path{stroke:url(#export-svg-gradient);stroke-width:2;}#export-svg [data-look="neo"].node .outer-path{filter:drop-shadow( 0px 1px 2px rgba(0, 0, 0, 0.25));}#export-svg [data-look="neo"].node .neo-line path{stroke:#000000;filter:none;}#export-svg [data-look="neo"].node circle{stroke:url(#export-svg-gradient);filter:drop-shadow( 0px 1px 2px rgba(0, 0, 0, 0.25));}#export-svg [data-look="neo"].node circle .state-start{fill:#000000;}#export-svg [data-look="neo"].statediagram-cluster rect{fill:#ffffff;stroke:url(#export-svg-gradient);stroke-width:2;}#export-svg [data-look="neo"].icon-shape .icon{fill:url(#export-svg-gradient);filter:drop-shadow( 0px 1px 2px rgba(0, 0, 0, 0.25));}#export-svg [data-look="neo"].icon-shape .icon-neo path{stroke:url(#export-svg-gradient);filter:drop-shadow( 0px 1px 2px rgba(0, 0, 0, 0.25));}#export-svg :root{--mermaid-font-family:"trebuchet ms",verdana,arial,sans-serif;}</style><g><defs><marker id="export-svg_class-aggregationStart" class="marker aggregation class" refX="18" refY="7" markerWidth="190" markerHeight="240" orient="auto"><path d="M 18,7 L9,13 L1,7 L9,1 Z"/></marker></defs><defs><marker id="export-svg_class-aggregationEnd" class="marker aggregation class" refX="1" refY="7" markerWidth="20" markerHeight="28" orient="auto"><path d="M 18,7 L9,13 L1,7 L9,1 Z"/></marker></defs><defs><marker id="export-svg_class-aggregationStart-margin" class="marker aggregation class" refX="15" refY="7" markerWidth="190" markerHeight="240" orient="auto" markerUnits="userSpaceOnUse"><path style="stroke-width: 2px;" d="M 18,7 L9,13 L1,7 L9,1 Z"/></marker></defs><defs><marker id="export-svg_class-aggregationEnd-margin" class="marker aggregation class" refX="1" refY="7" markerWidth="20" markerHeight="28" orient="auto" markerUnits="userSpaceOnUse"><path style="stroke-width: 2px;" d="M 18,7 L9,13 L1,7 L9,1 Z"/></marker></defs><defs><marker id="export-svg_class-extensionStart" class="marker extension class" refX="17.5" refY="7" markerWidth="190" markerHeight="240" orient="auto" markerUnits="userSpaceOnUse"><path d="M 1,7 L18,13 V 1 Z"/></marker></defs><defs><marker id="export-svg_class-extensionEnd" class="marker extension class" refX="1" refY="7" markerWidth="20" markerHeight="28" orient="auto"><path d="M 1,1 V 13 L18,7 Z"/></marker></defs><marker id="export-svg_class-extensionStart-margin" class="marker extension class" refX="18" refY="7" markerWidth="20" markerHeight="28" orient="auto" markerUnits="userSpaceOnUse" viewBox="0 0 20 14"><polygon points="10,7 18,13 18,1" style="stroke-width: 2px; stroke-dasharray: 0px;"/></marker><defs><marker id="export-svg_class-extensionEnd-margin" class="marker extension class" refX="9" refY="7" markerWidth="20" markerHeight="28" orient="auto" markerUnits="userSpaceOnUse" viewBox="0 0 20 14"><polygon points="10,1 10,13 18,7" style="stroke-width: 2px; stroke-dasharray: 0px;"/></marker></defs><defs><marker id="export-svg_class-compositionStart" class="marker composition class" refX="18" refY="7" markerWidth="190" markerHeight="240" orient="auto"><path d="M 18,7 L9,13 L1,7 L9,1 Z"/></marker></defs><defs><marker id="export-svg_class-compositionEnd" class="marker composition class" refX="1" refY="7" markerWidth="20" markerHeight="28" orient="auto"><path d="M 18,7 L9,13 L1,7 L9,1 Z"/></marker></defs><defs><marker id="export-svg_class-compositionStart-margin" class="marker composition class" refX="15" refY="7" markerWidth="190" markerHeight="240" orient="auto" markerUnits="userSpaceOnUse"><path style="stroke-width: 0px;" viewBox="0 0 15 15" d="M 18,7 L9,13 L1,7 L9,1 Z"/></marker></defs><defs><marker id="export-svg_class-compositionEnd-margin" class="marker composition class" refX="3.5" refY="7" markerWidth="20" markerHeight="28" orient="auto" markerUnits="userSpaceOnUse"><path style="stroke-width: 0px;" d="M 18,7 L9,13 L1,7 L9,1 Z"/></marker></defs><defs><marker id="export-svg_class-dependencyStart" class="marker dependency class" refX="6" refY="7" markerWidth="190" markerHeight="240" orient="auto"><path d="M 5,7 L9,13 L1,7 L9,1 Z"/></marker></defs><defs><marker id="export-svg_class-dependencyEnd" class="marker dependency class" refX="13" refY="7" markerWidth="20" markerHeight="28" orient="auto"><path d="M 18,7 L9,13 L14,7 L9,1 Z"/></marker></defs><defs><marker id="export-svg_class-dependencyStart-margin" class="marker dependency class" refX="4" refY="7" markerWidth="190" markerHeight="240" orient="auto" markerUnits="userSpaceOnUse"><path style="stroke-width: 0px;" d="M 5,7 L9,13 L1,7 L9,1 Z"/></marker></defs><defs><marker id="export-svg_class-dependencyEnd-margin" class="marker dependency class" refX="16" refY="7" markerWidth="20" markerHeight="28" orient="auto" markerUnits="userSpaceOnUse"><path style="stroke-width: 0px;" d="M 18,7 L9,13 L14,7 L9,1 Z"/></marker></defs><defs><marker id="export-svg_class-lollipopStart" class="marker lollipop class" refX="13" refY="7" markerWidth="190" markerHeight="240" orient="auto"><circle fill="transparent" cx="7" cy="7" r="6"/></marker></defs><defs><marker id="export-svg_class-lollipopEnd" class="marker lollipop class" refX="1" refY="7" markerWidth="190" markerHeight="240" orient="auto"><circle fill="transparent" cx="7" cy="7" r="6"/></marker></defs><defs><marker id="export-svg_class-lollipopStart-margin" class="marker lollipop class" refX="13" refY="7" markerWidth="190" markerHeight="240" orient="auto" markerUnits="userSpaceOnUse"><circle fill="transparent" cx="7" cy="7" r="6" stroke-width="2"/></marker></defs><defs><marker id="export-svg_class-lollipopEnd-margin" class="marker lollipop class" refX="1" refY="7" markerWidth="190" markerHeight="240" orient="auto" markerUnits="userSpaceOnUse"><circle fill="transparent" cx="7" cy="7" r="6" stroke-width="2"/></marker></defs></g><defs><filter id="drop-shadow" height="130%" width="130%"><feDropShadow dx="4" dy="4" stdDeviation="0" flood-opacity="0.06" flood-color="#000000"/></filter></defs><defs><filter id="drop-shadow-small" height="150%" width="150%"><feDropShadow dx="2" dy="2" stdDeviation="0" flood-opacity="0.06" flood-color="#000000"/></filter></defs><linearGradient id="export-svg-gradient" gradientUnits="objectBoundingBox" x1="0%" y1="0%" x2="100%" y2="0%"><stop offset="0%" stop-color="#0042eb" stop-opacity="1"/><stop offset="100%" stop-color="#eb0042" stop-opacity="1"/></linearGradient><g class="subgraphs"/><g class="nodes"><g class="node default" id="classId-NetClient-2130" data-id="NetClient" data-node="true" data-et="node" data-look="neo" transform="translate(205.41582946777345, 371)"><g class="basic label-container outer-path"><path d="M-105.55416870117188 -102 L105.55416870117188 -102 L105.55416870117188 102 L-105.55416870117188 102" stroke="none" stroke-width="0" fill="#ffffff" style=""/><path d="M-105.55416870117188 -102 C-45.14284298858393 -102, 15.268482724004016 -102, 105.55416870117188 -102 M-105.55416870117188 -102 C-21.160942702442668 -102, 63.23228329628654 -102, 105.55416870117188 -102 M105.55416870117188 -102 C105.55416870117188 -28.13562809530744, 105.55416870117188 45.72874380938512, 105.55416870117188 102 M105.55416870117188 -102 C105.55416870117188 -27.764492964561185, 105.55416870117188 46.47101407087763, 105.55416870117188 102 M105.55416870117188 102 C24.246062463725565 102, -57.062043773720745 102, -105.55416870117188 102 M105.55416870117188 102 C63.08924355259791 102, 20.62431840402394 102, -105.55416870117188 102 M-105.55416870117188 102 C-105.55416870117188 31.70878328329799, -105.55416870117188 -38.58243343340402, -105.55416870117188 -102 M-105.55416870117188 102 C-105.55416870117188 38.06398462731746, -105.55416870117188 -25.87203074536508, -105.55416870117188 -102" stroke="#000000" stroke-width="1.3" fill="none" stroke-dasharray="0 0" style=""/></g><g class="annotation-group text" transform="translate(0, -78)"/><g class="label-group text" transform="translate(-35, -78)"><g class="label" style="font-weight: bolder" transform="translate(0,-10.5)"><foreignObject width="70" height="21"><div style="display: table-cell; white-space: normal; line-height: 1.5; max-width: 125px; text-align: center;" xmlns="http://www.w3.org/1999/xhtml"><span class="nodeLabel markdown-node-label" style=""><p>NetClient</p></span></div></foreignObject></g></g><g class="members-group text" transform="translate(-93.55416870117188, -33)"/><g class="methods-group text" transform="translate(-93.55416870117188, -9)"><g class="label" style="" transform="translate(0,-10.5)"><foreignObject width="103.89999389648438" height="21"><div style="display: table-cell; white-space: normal; line-height: 1.5; max-width: 190px; text-align: center;" xmlns="http://www.w3.org/1999/xhtml"><span class="nodeLabel markdown-node-label" style=""><p>+beginConnect()</p></span></div></foreignObject></g><g class="label" style="" transform="translate(0,10.5)"><foreignObject width="103.88333129882812" height="21"><div style="display: table-cell; white-space: normal; line-height: 1.5; max-width: 191px; text-align: center;" xmlns="http://www.w3.org/1999/xhtml"><span class="nodeLabel markdown-node-label" style=""><p>+pumpNetwork()</p></span></div></foreignObject></g><g class="label" style="" transform="translate(0,31.5)"><foreignObject width="78.98333740234375" height="21"><div style="display: table-cell; white-space: normal; line-height: 1.5; max-width: 164px; text-align: center;" xmlns="http://www.w3.org/1999/xhtml"><span class="nodeLabel markdown-node-label" style=""><p>+sendInput()</p></span></div></foreignObject></g><g class="label" style="" transform="translate(0,52.5)"><foreignObject width="152.86666870117188" height="21"><div style="display: table-cell; white-space: normal; line-height: 1.5; max-width: 261px; text-align: center;" xmlns="http://www.w3.org/1999/xhtml"><span class="nodeLabel markdown-node-label" style=""><p>+tryGetLatestSnapshot()</p></span></div></foreignObject></g><g class="label" style="" transform="translate(0,73.5)"><foreignObject width="158.31666564941406" height="21"><div style="display: table-cell; white-space: normal; line-height: 1.5; max-width: 270px; text-align: center;" xmlns="http://www.w3.org/1999/xhtml"><span class="nodeLabel markdown-node-label" style=""><p>+tryGetLatestCorrection()</p></span></div></foreignObject></g></g><g class="divider" style=""><path d="M-105.55416870117188 -57 C-44.91905588569982 -56.99971277727085, 15.716056929772236 -56.999425554541695, 105.55416870117188 -56.999 M-105.55416870117188 -57 C-34.94730537435068 -56.99966554204256, 35.65955795247052 -56.999331084085114, 105.55416870117188 -56.999" stroke="#000000" stroke-width="1.3" fill="none" stroke-dasharray="0 0" style=""/></g><g class="divider" style=""><path d="M-105.55416870117188 -33 C-32.208481748241226 -32.999652568497034, 41.13720520468942 -32.99930513699407, 105.55416870117188 -32.999 M-105.55416870117188 -33 C-60.94316261154241 -32.99978868193157, -16.33215652191295 -32.99957736386314, 105.55416870117188 -32.999" stroke="#000000" stroke-width="1.3" fill="none" stroke-dasharray="0 0" style=""/></g></g><g class="node default" id="classId-Connection-2131" data-id="Connection" data-node="true" data-et="node" data-look="neo" transform="translate(412.0833206176758, 100.5)"><g class="basic label-container outer-path"><path d="M-99.91666412353516 -88.5 L99.91666412353516 -88.5 L99.91666412353516 88.5 L-99.91666412353516 88.5" stroke="none" stroke-width="0" fill="#ffffff" style=""/><path d="M-99.91666412353516 -88.5 C-41.86988480521352 -88.5, 16.17689451310811 -88.5, 99.91666412353516 -88.5 M-99.91666412353516 -88.5 C-55.62148710291204 -88.5, -11.326310082288927 -88.5, 99.91666412353516 -88.5 M99.91666412353516 -88.5 C99.91666412353516 -31.021495281725457, 99.91666412353516 26.457009436549086, 99.91666412353516 88.5 M99.91666412353516 -88.5 C99.91666412353516 -34.964394612455315, 99.91666412353516 18.57121077508937, 99.91666412353516 88.5 M99.91666412353516 88.5 C22.622632630989813 88.5, -54.67139886155553 88.5, -99.91666412353516 88.5 M99.91666412353516 88.5 C23.510057940337347 88.5, -52.89654824286046 88.5, -99.91666412353516 88.5 M-99.91666412353516 88.5 C-99.91666412353516 40.59815403221871, -99.91666412353516 -7.303691935562583, -99.91666412353516 -88.5 M-99.91666412353516 88.5 C-99.91666412353516 18.762197520946003, -99.91666412353516 -50.97560495810799, -99.91666412353516 -88.5" stroke="#000000" stroke-width="1.3" fill="none" stroke-dasharray="0 0" style=""/></g><g class="annotation-group text" transform="translate(0, -64.5)"/><g class="label-group text" transform="translate(-48.25, -64.5)"><g class="label" style="font-weight: bolder" transform="translate(0,-10.5)"><foreignObject width="96.5" height="21"><div style="display: table-cell; white-space: normal; line-height: 1.5; max-width: 167px; text-align: center;" xmlns="http://www.w3.org/1999/xhtml"><span class="nodeLabel markdown-node-label" style=""><p>Connection</p></span></div></foreignObject></g></g><g class="members-group text" transform="translate(-87.91666412353516, -19.5)"><g class="label" style="" transform="translate(0,-10.5)"><foreignObject width="127.58332824707031" height="21"><div style="display: table-cell; white-space: normal; line-height: 1.5; max-width: 218px; text-align: center;" xmlns="http://www.w3.org/1999/xhtml"><span class="nodeLabel markdown-node-label" style=""><p>connect / disconnect</p></span></div></foreignObject></g><g class="label" style="" transform="translate(0,10.5)"><foreignObject width="122.16667175292969" height="21"><div style="display: table-cell; white-space: normal; line-height: 1.5; max-width: 207px; text-align: center;" xmlns="http://www.w3.org/1999/xhtml"><span class="nodeLabel markdown-node-label" style=""><p>handshake lifecycle</p></span></div></foreignObject></g><g class="label" style="" transform="translate(0,31.5)"><foreignObject width="122.13333129882812" height="21"><div style="display: table-cell; white-space: normal; line-height: 1.5; max-width: 215px; text-align: center;" xmlns="http://www.w3.org/1999/xhtml"><span class="nodeLabel markdown-node-label" style=""><p>ENet init / teardown</p></span></div></foreignObject></g><g class="label" style="" transform="translate(0,52.5)"><foreignObject width="123.31666564941406" height="21"><div style="display: table-cell; white-space: normal; line-height: 1.5; max-width: 214px; text-align: center;" xmlns="http://www.w3.org/1999/xhtml"><span class="nodeLabel markdown-node-label" style=""><p>failure + reset paths</p></span></div></foreignObject></g></g><g class="methods-group text" transform="translate(-87.91666412353516, 88.5)"/><g class="divider" style=""><path d="M-99.91666412353516 -43.5 C-47.4644386737898 -43.499737520132854, 4.987786775955556 -43.49947504026571, 99.91666412353516 -43.499 M-99.91666412353516 -43.5 C-51.81134301375965 -43.49975927278231, -3.706021903984137 -43.49951854556463, 99.91666412353516 -43.499" stroke="#000000" stroke-width="1.3" fill="none" stroke-dasharray="0 0" style=""/></g><g class="divider" style=""><path d="M-99.91666412353516 64.5 C-21.435905076346003 64.50039273108112, 57.04485397084315 64.50078546216226, 99.91666412353516 64.501 M-99.91666412353516 64.5 C-23.60834614085654 64.50038185981614, 52.69997184182208 64.50076371963227, 99.91666412353516 64.501" stroke="#000000" stroke-width="1.3" fill="none" stroke-dasharray="0 0" style=""/></g></g><g class="node default" id="classId-Runtime-2132" data-id="Runtime" data-node="true" data-et="node" data-look="neo" transform="translate(641.0291442871094, 111)"><g class="basic label-container outer-path"><path d="M-89.02915954589844 -78 L89.02915954589844 -78 L89.02915954589844 78 L-89.02915954589844 78" stroke="none" stroke-width="0" fill="#ffffff" style=""/><path d="M-89.02915954589844 -78 C-32.958700656043696 -78, 23.111758233811045 -78, 89.02915954589844 -78 M-89.02915954589844 -78 C-44.28771897476625 -78, 0.4537215963659378 -78, 89.02915954589844 -78 M89.02915954589844 -78 C89.02915954589844 -20.103627697006317, 89.02915954589844 37.792744605987366, 89.02915954589844 78 M89.02915954589844 -78 C89.02915954589844 -41.11095496218877, 89.02915954589844 -4.221909924377542, 89.02915954589844 78 M89.02915954589844 78 C23.256151061867996 78, -42.516857422162445 78, -89.02915954589844 78 M89.02915954589844 78 C41.017577224289695 78, -6.994005097319047 78, -89.02915954589844 78 M-89.02915954589844 78 C-89.02915954589844 41.09890701473182, -89.02915954589844 4.197814029463643, -89.02915954589844 -78 M-89.02915954589844 78 C-89.02915954589844 33.79566104387796, -89.02915954589844 -10.408677912244073, -89.02915954589844 -78" stroke="#000000" stroke-width="1.3" fill="none" stroke-dasharray="0 0" style=""/></g><g class="annotation-group text" transform="translate(0, -54)"/><g class="label-group text" transform="translate(-38.90833282470703, -54)"><g class="label" style="font-weight: bolder" transform="translate(0,-10.5)"><foreignObject width="77.81666564941406" height="21"><div style="display: table-cell; white-space: normal; line-height: 1.5; max-width: 144px; text-align: center;" xmlns="http://www.w3.org/1999/xhtml"><span class="nodeLabel markdown-node-label" style=""><p>Runtime</p></span></div></foreignObject></g></g><g class="members-group text" transform="translate(-77.02915954589844, -9)"><g class="label" style="" transform="translate(0,-10.5)"><foreignObject width="115.13333129882812" height="21"><div style="display: table-cell; white-space: normal; line-height: 1.5; max-width: 193px; text-align: center;" xmlns="http://www.w3.org/1999/xhtml"><span class="nodeLabel markdown-node-label" style=""><p>pump ENet events</p></span></div></foreignObject></g><g class="label" style="" transform="translate(0,10.5)"><foreignObject width="99.60000610351562" height="21"><div style="display: table-cell; white-space: normal; line-height: 1.5; max-width: 176px; text-align: center;" xmlns="http://www.w3.org/1999/xhtml"><span class="nodeLabel markdown-node-label" style=""><p>outbound sends</p></span></div></foreignObject></g><g class="label" style="" transform="translate(0,31.5)"><foreignObject width="115.14999389648438" height="21"><div style="display: table-cell; white-space: normal; line-height: 1.5; max-width: 204px; text-align: center;" xmlns="http://www.w3.org/1999/xhtml"><span class="nodeLabel markdown-node-label" style=""><p>transport sampling</p></span></div></foreignObject></g></g><g class="methods-group text" transform="translate(-77.02915954589844, 78)"/><g class="divider" style=""><path d="M-89.02915954589844 -33 C-46.566826385193735 -32.99976152569912, -4.104493224489033 -32.99952305139825, 89.02915954589844 -32.999 M-89.02915954589844 -33 C-29.304589001067512 -32.999664578600715, 30.419981543763413 -32.99932915720142, 89.02915954589844 -32.999" stroke="#000000" stroke-width="1.3" fill="none" stroke-dasharray="0 0" style=""/></g><g class="divider" style=""><path d="M-89.02915954589844 54 C-51.309041785905485 54.00021184136721, -13.588924025912533 54.00042368273442, 89.02915954589844 54.001 M-89.02915954589844 54 C-28.26291594435643 54.000341271578385, 32.50332765718558 54.00068254315678, 89.02915954589844 54.001" stroke="#000000" stroke-width="1.3" fill="none" stroke-dasharray="0 0" style=""/></g></g><g class="node default" id="classId-Protocol-2133" data-id="Protocol" data-node="true" data-et="node" data-look="neo" transform="translate(142.0833282470703, 111)"><g class="basic label-container outer-path"><path d="M-130.0833282470703 -78 L130.0833282470703 -78 L130.0833282470703 78 L-130.0833282470703 78" stroke="none" stroke-width="0" fill="#ffffff" style=""/><path d="M-130.0833282470703 -78 C-61.96235143852725 -78, 6.1586253700158125 -78, 130.0833282470703 -78 M-130.0833282470703 -78 C-29.83664394218559 -78, 70.41004036269914 -78, 130.0833282470703 -78 M130.0833282470703 -78 C130.0833282470703 -21.78237474992411, 130.0833282470703 34.43525050015178, 130.0833282470703 78 M130.0833282470703 -78 C130.0833282470703 -18.045313900999922, 130.0833282470703 41.909372198000156, 130.0833282470703 78 M130.0833282470703 78 C51.18603721529266 78, -27.711253816484998 78, -130.0833282470703 78 M130.0833282470703 78 C48.445426374254836 78, -33.19247549856064 78, -130.0833282470703 78 M-130.0833282470703 78 C-130.0833282470703 34.789782438850075, -130.0833282470703 -8.42043512229985, -130.0833282470703 -78 M-130.0833282470703 78 C-130.0833282470703 17.957355956915343, -130.0833282470703 -42.085288086169314, -130.0833282470703 -78" stroke="#000000" stroke-width="1.3" fill="none" stroke-dasharray="0 0" style=""/></g><g class="annotation-group text" transform="translate(0, -54)"/><g class="label-group text" transform="translate(-38.51667022705078, -54)"><g class="label" style="font-weight: bolder" transform="translate(0,-10.5)"><foreignObject width="77.03334045410156" height="21"><div style="display: table-cell; white-space: normal; line-height: 1.5; max-width: 146px; text-align: center;" xmlns="http://www.w3.org/1999/xhtml"><span class="nodeLabel markdown-node-label" style=""><p>Protocol</p></span></div></foreignObject></g></g><g class="members-group text" transform="translate(-118.08332824707031, -9)"><g class="label" style="" transform="translate(0,-10.5)"><foreignObject width="98.81666564941406" height="21"><div style="display: table-cell; white-space: normal; line-height: 1.5; max-width: 178px; text-align: center;" xmlns="http://www.w3.org/1999/xhtml"><span class="nodeLabel markdown-node-label" style=""><p>packet handlers</p></span></div></foreignObject></g><g class="label" style="" transform="translate(0,10.5)"><foreignObject width="188.25" height="21"><div style="display: table-cell; white-space: normal; line-height: 1.5; max-width: 301px; text-align: center;" xmlns="http://www.w3.org/1999/xhtml"><span class="nodeLabel markdown-node-label" style=""><p>cache latest lobby/match state</p></span></div></foreignObject></g><g class="label" style="" transform="translate(0,31.5)"><foreignObject width="197.64999389648438" height="21"><div style="display: table-cell; white-space: normal; line-height: 1.5; max-width: 304px; text-align: center;" xmlns="http://www.w3.org/1999/xhtml"><span class="nodeLabel markdown-node-label" style=""><p>queue reliable gameplay events</p></span></div></foreignObject></g></g><g class="methods-group text" transform="translate(-118.08332824707031, 78)"/><g class="divider" style=""><path d="M-130.0833282470703 -33 C-77.70286774831862 -32.99979866574294, -25.322407249566936 -32.999597331485866, 130.0833282470703 -32.999 M-130.0833282470703 -33 C-46.602922922653505 -32.999679127193126, 36.8774824017633 -32.99935825438625, 130.0833282470703 -32.999" stroke="#000000" stroke-width="1.3" fill="none" stroke-dasharray="0 0" style=""/></g><g class="divider" style=""><path d="M-130.0833282470703 54 C-66.97063209612416 54.00024258564491, -3.8579359451780135 54.00048517128983, 130.0833282470703 54.001 M-130.0833282470703 54 C-45.82431010048535 54.00032386555326, 38.434708046099615 54.000647731106525, 130.0833282470703 54.001" stroke="#000000" stroke-width="1.3" fill="none" stroke-dasharray="0 0" style=""/></g></g><g class="node default" id="classId-ClientPrediction-2134" data-id="ClientPrediction" data-node="true" data-et="node" data-look="neo" transform="translate(894.7249704996744, 591)"><g class="basic label-container outer-path"><path d="M-91.57083129882812 -78 L91.57083129882812 -78 L91.57083129882812 78 L-91.57083129882812 78" stroke="none" stroke-width="0" fill="#ffffff" style=""/><path d="M-91.57083129882812 -78 C-19.407145786814354 -78, 52.75653972519942 -78, 91.57083129882812 -78 M-91.57083129882812 -78 C-28.422092947430855 -78, 34.726645403966415 -78, 91.57083129882812 -78 M91.57083129882812 -78 C91.57083129882812 -16.692279106000434, 91.57083129882812 44.61544178799913, 91.57083129882812 78 M91.57083129882812 -78 C91.57083129882812 -15.72707226121274, 91.57083129882812 46.54585547757452, 91.57083129882812 78 M91.57083129882812 78 C34.337169848783205 78, -22.896491601261715 78, -91.57083129882812 78 M91.57083129882812 78 C34.88072015850564 78, -21.809390981816847 78, -91.57083129882812 78 M-91.57083129882812 78 C-91.57083129882812 44.557116430108415, -91.57083129882812 11.11423286021683, -91.57083129882812 -78 M-91.57083129882812 78 C-91.57083129882812 27.22624203868164, -91.57083129882812 -23.54751592263672, -91.57083129882812 -78" stroke="#000000" stroke-width="1.3" fill="none" stroke-dasharray="0 0" style=""/></g><g class="annotation-group text" transform="translate(0, -54)"/><g class="label-group text" transform="translate(-60, -54)"><g class="label" style="font-weight: bolder" transform="translate(0,-10.5)"><foreignObject width="120" height="21"><div style="display: table-cell; white-space: normal; line-height: 1.5; max-width: 179px; text-align: center;" xmlns="http://www.w3.org/1999/xhtml"><span class="nodeLabel markdown-node-label" style=""><p>ClientPrediction</p></span></div></foreignObject></g></g><g class="members-group text" transform="translate(-79.57083129882812, -9)"><g class="label" style="" transform="translate(0,-10.5)"><foreignObject width="108.14999389648438" height="21"><div style="display: table-cell; white-space: normal; line-height: 1.5; max-width: 198px; text-align: center;" xmlns="http://www.w3.org/1999/xhtml"><span class="nodeLabel markdown-node-label" style=""><p>local input history</p></span></div></foreignObject></g><g class="label" style="" transform="translate(0,10.5)"><foreignObject width="110.11666870117188" height="21"><div style="display: table-cell; white-space: normal; line-height: 1.5; max-width: 192px; text-align: center;" xmlns="http://www.w3.org/1999/xhtml"><span class="nodeLabel markdown-node-label" style=""><p>reconcile + replay</p></span></div></foreignObject></g><g class="label" style="" transform="translate(0,31.5)"><foreignObject width="92.58332824707031" height="21"><div style="display: table-cell; white-space: normal; line-height: 1.5; max-width: 167px; text-align: center;" xmlns="http://www.w3.org/1999/xhtml"><span class="nodeLabel markdown-node-label" style=""><p>recovery mode</p></span></div></foreignObject></g></g><g class="methods-group text" transform="translate(-79.57083129882812, 78)"/><g class="divider" style=""><path d="M-91.57083129882812 -33 C-34.04317518238048 -32.99968588438425, 23.484480934067165 -32.9993717687685, 91.57083129882812 -32.999 M-91.57083129882812 -33 C-42.54159041545898 -32.99973228789022, 6.487650467910171 -32.999464575780436, 91.57083129882812 -32.999" stroke="#000000" stroke-width="1.3" fill="none" stroke-dasharray="0 0" style=""/></g><g class="divider" style=""><path d="M-91.57083129882812 54 C-41.78406494985002 54.00027184839126, 8.002701399128085 54.00054369678251, 91.57083129882812 54.001 M-91.57083129882812 54 C-35.06202649025118 54.0003085524288, 21.44677831832577 54.0006171048576, 91.57083129882812 54.001" stroke="#000000" stroke-width="1.3" fill="none" stroke-dasharray="0 0" style=""/></g></g><g class="node default" id="classId-ClientDiagnostics-2135" data-id="ClientDiagnostics" data-node="true" data-et="node" data-look="neo" transform="translate(863.5583038330078, 111)"><g class="basic label-container outer-path"><path d="M-93.5 -78 L93.5 -78 L93.5 78 L-93.5 78" stroke="none" stroke-width="0" fill="#ffffff" style=""/><path d="M-93.5 -78 C-52.06800289077554 -78, -10.636005781551077 -78, 93.5 -78 M-93.5 -78 C-39.313923936832566 -78, 14.872152126334868 -78, 93.5 -78 M93.5 -78 C93.5 -37.845003100879104, 93.5 2.3099937982417913, 93.5 78 M93.5 -78 C93.5 -41.351226971776455, 93.5 -4.702453943552911, 93.5 78 M93.5 78 C51.25784130863473 78, 9.015682617269462 78, -93.5 78 M93.5 78 C33.81434533196257 78, -25.87130933607486 78, -93.5 78 M-93.5 78 C-93.5 29.65684965016967, -93.5 -18.686300699660663, -93.5 -78 M-93.5 78 C-93.5 34.36868048346364, -93.5 -9.262639033072716, -93.5 -78" stroke="#000000" stroke-width="1.3" fill="none" stroke-dasharray="0 0" style=""/></g><g class="annotation-group text" transform="translate(0, -54)"/><g class="label-group text" transform="translate(-65, -54)"><g class="label" style="font-weight: bolder" transform="translate(0,-10.5)"><foreignObject width="130" height="21"><div style="display: table-cell; white-space: normal; line-height: 1.5; max-width: 190px; text-align: center;" xmlns="http://www.w3.org/1999/xhtml"><span class="nodeLabel markdown-node-label" style=""><p>ClientDiagnostics</p></span></div></foreignObject></g></g><g class="members-group text" transform="translate(-81.5, -9)"><g class="label" style="" transform="translate(0,-10.5)"><foreignObject width="96.48333740234375" height="21"><div style="display: table-cell; white-space: normal; line-height: 1.5; max-width: 176px; text-align: center;" xmlns="http://www.w3.org/1999/xhtml"><span class="nodeLabel markdown-node-label" style=""><p>event recording</p></span></div></foreignObject></g><g class="label" style="" transform="translate(0,10.5)"><foreignObject width="88.66667175292969" height="21"><div style="display: table-cell; white-space: normal; line-height: 1.5; max-width: 175px; text-align: center;" xmlns="http://www.w3.org/1999/xhtml"><span class="nodeLabel markdown-node-label" style=""><p>transport stats</p></span></div></foreignObject></g><g class="label" style="" transform="translate(0,31.5)"><foreignObject width="108.91667175292969" height="21"><div style="display: table-cell; white-space: normal; line-height: 1.5; max-width: 199px; text-align: center;" xmlns="http://www.w3.org/1999/xhtml"><span class="nodeLabel markdown-node-label" style=""><p>json report output</p></span></div></foreignObject></g></g><g class="methods-group text" transform="translate(-81.5, 78)"/><g class="divider" style=""><path d="M-93.5 -33 C-22.34893675367212 -32.99961951303077, 48.80212649265576 -32.99923902606154, 93.5 -32.999 M-93.5 -33 C-30.3271320382947 -32.999662177176674, 32.8457359234106 -32.999324354353355, 93.5 -32.999" stroke="#000000" stroke-width="1.3" fill="none" stroke-dasharray="0 0" style=""/></g><g class="divider" style=""><path d="M-93.5 54 C-30.31745712580115 54.00033787456083, 32.8650857483977 54.00067574912165, 93.5 54.001 M-93.5 54 C-25.614796038520254 54.000363022481075, 42.27040792295949 54.00072604496215, 93.5 54.001" stroke="#000000" stroke-width="1.3" fill="none" stroke-dasharray="0 0" style=""/></g></g></g><g class="edges edgePaths"><path d="M184.30499572753905,269L184.30499572753905,216.07106781186548Q184.30499572753905,209 191.37606353940453,209L405.0833206176758,209Q412.0833206176758,209 412.0833206176758,202L412.0833206176758,195" id="id_NetClient_Connection_1" class="edge-thickness-normal edge-pattern-solid relation" style="stroke-dasharray: 0 0 296.47650146484375 0; stroke-dashoffset: 0;;;;" data-edge="true" data-et="edge" data-id="id_NetClient_Connection_1" data-points="W3sieCI6MTg0LjMwNDk5NTcyNzUzOTA1LCJ5IjoyNjl9LHsieCI6MTg0LjMwNDk5NTcyNzUzOTA1LCJ5IjoyMDl9LHsieCI6NDEyLjA4MzMyMDYxNzY3NTgsInkiOjIwOX0seyJ4Ijo0MTIuMDgzMzIwNjE3Njc1OCwieSI6MTg5fV0=" marker-end="url(#export-svg_class-dependencyEnd-margin)"/><path d="M226.52666320800782,269L226.52666320800782,236.07106781186548Q226.52666320800782,229 233.5977310198733,229L633.9580764752438,229Q641.0291442871094,229 641.0291442871094,221.92893218813452L641.0291442871094,195" id="id_NetClient_Runtime_2" class="edge-thickness-normal edge-pattern-solid relation" style="stroke-dasharray: 0 0 483.174072265625 0; stroke-dashoffset: 0;;;;" data-edge="true" data-et="edge" data-id="id_NetClient_Runtime_2" data-points="W3sieCI6MjI2LjUyNjY2MzIwODAwNzgyLCJ5IjoyNjl9LHsieCI6MjI2LjUyNjY2MzIwODAwNzgyLCJ5IjoyMjl9LHsieCI6NjQxLjAyOTE0NDI4NzEwOTQsInkiOjIyOX0seyJ4Ijo2NDEuMDI5MTQ0Mjg3MTA5NCwieSI6MTg5fV0=" marker-end="url(#export-svg_class-dependencyEnd-margin)"/><path d="M142.08332824707034,269L142.0833282470703,195" id="id_NetClient_Protocol_3" class="edge-thickness-normal edge-pattern-solid relation" style="stroke-dasharray: 0 0 74 0; stroke-dashoffset: 0;;;;" data-edge="true" data-et="edge" data-id="id_NetClient_Protocol_3" data-points="W3sieCI6MTQyLjA4MzMyODI0NzA3MDM0LCJ5IjoyNjl9LHsieCI6MTQyLjA4MzMyODI0NzA3MDMsInkiOjE4OX1d" marker-end="url(#export-svg_class-dependencyEnd-margin)"/><path d="M268.7483306884766,269L268.7483306884766,256.0710678118655Q268.7483306884766,249 275.81939850034206,249L825.3205693544758,249Q832.3916371663412,249 832.3916371663412,241.92893218813452L832.3916371663412,195" id="id_NetClient_ClientDiagnostics_4" class="edge-thickness-normal edge-pattern-solid relation" style="stroke-dasharray: 0 0 632.3150634765625 0; stroke-dashoffset: 0;;;;" data-edge="true" data-et="edge" data-id="id_NetClient_ClientDiagnostics_4" data-points="W3sieCI6MjY4Ljc0ODMzMDY4ODQ3NjYsInkiOjI2OX0seyJ4IjoyNjguNzQ4MzMwNjg4NDc2NiwieSI6MjQ5fSx7IngiOjgzMi4zOTE2MzcxNjYzNDEyLCJ5IjoyNDl9LHsieCI6ODMyLjM5MTYzNzE2NjM0MTIsInkiOjE4OX1d" marker-end="url(#export-svg_class-dependencyEnd-margin)"/><path d="M894.7249704996744,513L894.7249704996744,195" id="id_ClientPrediction_ClientDiagnostics_5" class="edge-thickness-normal edge-pattern-solid relation" style="stroke-dasharray: 0 0 318 0; stroke-dashoffset: 0;;;;" data-edge="true" data-et="edge" data-id="id_ClientPrediction_ClientDiagnostics_5" data-points="W3sieCI6ODk0LjcyNDk3MDQ5OTY3NDQsInkiOjUxM30seyJ4Ijo4OTQuNzI0OTcwNDk5Njc0NCwieSI6MTg5fV0=" marker-end="url(#export-svg_class-dependencyEnd-margin)"/></g><g class="edgeLabels"><g class="edgeLabel"><g class="label" data-id="id_NetClient_Connection_1" transform="translate(0, 0)"><foreignObject width="0" height="0"><div style="display: table-cell; white-space: normal; line-height: 1.5; max-width: 200px; text-align: center;" xmlns="http://www.w3.org/1999/xhtml" class="labelBkg"><span class="edgeLabel"></span></div></foreignObject></g></g><g class="edgeLabel"><g class="label" data-id="id_NetClient_Runtime_2" transform="translate(0, 0)"><foreignObject width="0" height="0"><div style="display: table-cell; white-space: normal; line-height: 1.5; max-width: 200px; text-align: center;" xmlns="http://www.w3.org/1999/xhtml" class="labelBkg"><span class="edgeLabel"></span></div></foreignObject></g></g><g class="edgeLabel"><g class="label" data-id="id_NetClient_Protocol_3" transform="translate(0, 0)"><foreignObject width="0" height="0"><div style="display: table-cell; white-space: normal; line-height: 1.5; max-width: 200px; text-align: center;" xmlns="http://www.w3.org/1999/xhtml" class="labelBkg"><span class="edgeLabel"></span></div></foreignObject></g></g><g class="edgeLabel"><g class="label" data-id="id_NetClient_ClientDiagnostics_4" transform="translate(0, 0)"><foreignObject width="0" height="0"><div style="display: table-cell; white-space: normal; line-height: 1.5; max-width: 200px; text-align: center;" xmlns="http://www.w3.org/1999/xhtml" class="labelBkg"><span class="edgeLabel"></span></div></foreignObject></g></g><g class="edgeLabel" transform="translate(894.5583063761393, 371)"><g class="label" data-id="id_ClientPrediction_ClientDiagnostics_5" transform="translate(-33.833335876464844, -10.5)"><foreignObject width="67.66667175292969" height="21"><div style="display: table-cell; white-space: normal; line-height: 1.5; max-width: 200px; text-align: center;" xmlns="http://www.w3.org/1999/xhtml" class="labelBkg"><span class="edgeLabel"><p>feeds stats</p></span></div></foreignObject></g></g></g></svg>